<svg xmlns="http://www.w3.org/2000/svg" height="3456" width="4608">
  <defs>
    <clipPath id="a">
      <path id="thelogo" d="M0 2592h3456V0H0z"/>
    </clipPath>
  </defs>
  <g clip-path="url(#a)" transform="matrix(1.33333 0 0 -1.33333 0 3456)">
    <path d="M1012.853 2556.005H1398.4l97.786-1871.498h-46.317l-226.308 1593.912h-488.4zM2155.016 2556.005h-385.57l-97.68-1871.498h46.254l226.076 1593.912h488.59z" fill="black"/>
    <path d="M1460.087 2550.918h246.829l-51.385-437.122h-143.912z" fill="none" stroke="black" stroke-width="20"/>
    <path d="M247.754 918.328h-70.595v18.114h172.623v-18.114h-69.159V778.87h-32.869zM490.021 940.433l19.612-110.77h.909l42.707 77.435h8.804l42.706-77.435h.971l20.099 110.77 33.29-2.429-36.754-163.144h-11.272l-53.431 97.151-53.496-97.151h-11.232L456.16 938.004zM799.359 797.026h35.762v121.302h-35.762v18.114h104.943v-18.114h-36.269V797.026h36.269V778.87H799.359zM1060.69 936.442h40.702l99.052-132.829.993.632-2.935 40.829v91.368h32.828V778.87h-40.723l-99.053 132.787-.907-.653 2.872-41.062V778.87h-32.829zM1885.28 797.026h35.784v121.302h-35.784v18.114h104.923v-18.114h-36.268V797.026h36.268V778.87H1885.28zM2174.585 906.506h-.949l-6.376-127.636h-34.814l10.241 157.572h43.127l46.129-68.399 46.126 68.399h43.067l10.323-157.572h-34.834l-6.354 127.636h-.949l-57.379-83.218zM2526.145 912.883l-36.354-72.96h72.685zm-45.157-91.115l-24.026-46.908-32.318 7.346 80.411 154.236h42.137l80.412-154.236-32.321-7.346-23.561 46.908zM2906.605 793.311c-21.07-10.198-52.461-17.226-78.491-17.226-75.007 0-96.539 43.022-96.539 81.699 0 38.125 22.503 81.403 95.568 81.403 34.348 0 64.22-12.414 81.889-30.273l-27.907-11.125c-12.289 12.623-30.949 22.335-55.881 22.335-50.498 0-59.387-39.056-59.387-62.974 0-24.447 8.889-61.939 60.357-61.939 16.636 0 33.292 2.66 47.563 8.148v41.419h-61.305v18.156h94.133zM3208.531 910.265h-176.15v21.068h176.15zM3208.531 844.23h-176.15v21.068h176.15zM3208.531 778.196h-176.15v21.047h176.15z" fill="black"/>
    <path d="M3371.677 951.094c0-23.814-19.296-43.087-43.068-43.087-23.791 0-43.064 19.273-43.064 43.087 0 23.77 19.273 43.065 43.064 43.065 23.772 0 43.068-19.295 43.068-43.065" fill="black"/>
    <path d="M3371.677 951.094c0-23.814-19.296-43.087-43.068-43.087-23.791 0-43.064 19.273-43.064 43.087 0 23.77 19.273 43.065 43.064 43.065 23.772 0 43.068-19.295 43.068-43.065z" fill="none" stroke="black" stroke-width="10"/>
    <text style="-inkscape-font-specification:Myriad-Roman" transform="matrix(1 0 0 -1 3306.146 923.375)" font-weight="400" font-size="81.591" font-family="Myriad" fill="black">
      <tspan y="0" x="0">R</tspan>
    </text>
    <text style="-inkscape-font-specification:ArialMT" transform="matrix(1 0 0 -1 674.488 144.31)" font-weight="400" font-size="507.049" font-family="Arial" fill="black">
      <tspan y="0" x="0 366.08966 648.00916 986.21106 1127.1708 1521.6553">D SIGN</tspan>
    </text>
    <path d="M1305.07 450.554h-256.476v46.825h256.476zM1305.07 303.58h-256.476v46.824h256.476zM1305.07 156.606h-256.476v46.867h256.476z" fill="black"/>
  </g>
</svg>
